# xmcd
#
# Track frame offsets:
#	150
#	18142
#	34717
#	54368
#	71843
#	87573
#	103286
#	120708
#	135720
#	153712
#	170287
#	189938
#	207413
#	223143
#	238856
#	256278
#
# Disc length: 3617 seconds
#
# Revision: 1
# Processed by: cddbd v1.5.2PL0 Copyright (c) Steve Scherf et al.
# Submitted via: audiograbber 1.83.01
#
DISCID=ea0e1f10
DTITLE=Karaoke Party - Ladies of Country Disc 2
DYEAR=2006
DGENRE=Karaoke
TTITLE0=Reba McEntire - My Sister
TTITLE1=Gretchen Wilson - Redneck Woman
TTITLE2=Faith Hill with Tim McGraw - Like We Never Loved At All
TTITLE3=Sara Evans - Suds in the Bucket
TTITLE4=Gretchen Wilson - Homewrecker
TTITLE5=Terri Clark -  I Just Wanna Be Mad
TTITLE6=Wynonna - What the World Needs
TTITLE7=Martina McBride - In My Daughter's Eyes
TTITLE8=Reba McEntire - My Sister (w Vocals)
TTITLE9=Gretchen Wilson - Redneck Woman (w Vocals)
TTITLE10=Faith Hill with Tim McGraw - Like We Never Loved At All (w Vocals)
TTITLE11=Sara Evans - Suds in the Bucket (w Vocals)
TTITLE12=Gretchen Wilson - Homewrecker (w Vocals)
TTITLE13=Terri Clark -  I Just Wanna Be Mad (w Vocals)
TTITLE14=Wynonna - What the World Needs (w Vocals)
TTITLE15=Martina McBride - In My Daughter's Eyes (w Vocals)
EXTD=
EXTT0=
EXTT1=
EXTT2=
EXTT3=
EXTT4=
EXTT5=
EXTT6=
EXTT7=
EXTT8=
EXTT9=
EXTT10=
EXTT11=
EXTT12=
EXTT13=
EXTT14=
EXTT15=
PLAYORDER=
